<?xml version="1.0" standalone="no"?>
<!DOCTYPE svg PUBLIC "-//W3C//DTD SVG 20010904//EN"
 "http://www.w3.org/TR/2001/REC-SVG-20010904/DTD/svg10.dtd">
<svg version="1.0" xmlns="http://www.w3.org/2000/svg"
 width="198.000000pt" height="254.000000pt" viewBox="0 0 198.000000 254.000000"
 preserveAspectRatio="xMidYMid meet">
<metadata>
Created by potrace 1.16, written by Peter Selinger 2001-2019
</metadata>
<g transform="translate(0.000000,254.000000) scale(0.100000,-0.100000)"
fill="#000000" stroke="none">
<path d="M901 2418 c-4 -13 -20 -59 -36 -103 -15 -44 -31 -84 -35 -88 -4 -5
-59 25 -121 67 -62 41 -114 74 -116 73 -1 -2 4 -41 12 -88 22 -126 23 -125
-27 -91 -44 30 -102 62 -113 62 -4 0 4 -14 16 -31 12 -18 37 -65 54 -106 18
-41 35 -76 37 -78 2 -3 43 11 90 30 193 79 392 103 577 71 107 -19 105 -20
115 58 3 29 15 78 26 110 l19 57 -40 -32 c-22 -17 -52 -47 -67 -67 -26 -35
-27 -35 -33 -11 -4 13 -7 47 -8 75 -1 28 -4 66 -7 84 l-7 32 -96 -102 -96
-103 -64 102 c-36 55 -66 101 -68 101 -2 0 -7 -10 -12 -22z"/>
<path d="M889 2074 c-82 -14 -249 -71 -249 -84 0 -4 11 -11 24 -14 24 -6 86
-68 86 -87 0 -5 -12 -2 -26 7 -14 10 -45 18 -69 18 -54 1 -94 -26 -114 -79
-15 -37 -13 -56 14 -165 6 -23 4 -22 -29 12 -44 46 -62 106 -49 170 11 57 6
55 -84 -26 -58 -53 -134 -148 -182 -229 -25 -41 -25 -41 41 -52 l38 -6 -39
-57 c-73 -107 -137 -264 -154 -374 -7 -45 -4 -46 88 -17 37 11 68 19 70 17 1
-2 -2 -32 -7 -68 -20 -135 6 -367 53 -478 l19 -44 49 41 c54 45 122 122 191
215 l44 59 14 -49 c19 -67 20 -288 3 -397 -16 -101 -21 -93 69 -129 50 -21 72
-23 230 -23 166 0 179 2 249 27 40 15 101 43 136 62 l62 35 17 -60 c19 -69 17
-69 108 8 75 63 149 157 188 238 30 63 70 199 70 239 0 17 6 14 40 -19 22 -21
42 -36 45 -34 12 13 44 165 50 241 9 105 -6 214 -45 332 -30 90 -104 233 -141
271 -19 19 -19 19 -19 -3 0 -30 -10 -27 -43 13 -24 29 -26 37 -16 53 10 16 9
25 -4 46 -20 30 -43 33 -68 10 -17 -15 -21 -15 -52 5 -19 11 -38 21 -41 21
-16 0 40 -69 106 -131 l70 -65 -90 4 c-52 3 -104 0 -122 -7 -31 -10 -33 -9
-101 60 -72 73 -82 97 -53 137 19 27 10 28 -37 3 l-36 -19 -58 29 c-33 16 -73
29 -94 29 -36 0 -132 -46 -138 -66 -7 -21 72 -47 165 -54 l93 -6 72 -73 c40
-41 63 -70 52 -66 -11 4 -92 11 -180 14 -143 6 -165 9 -198 30 -44 27 -75 68
-83 110 -6 27 -11 31 -40 31 -18 0 -35 4 -38 9 -6 10 54 60 102 85 33 17 33
18 16 38 -18 19 -18 20 1 35 43 32 121 65 197 85 l80 20 99 -60 c91 -56 100
-59 109 -42 6 10 10 28 10 39 0 11 5 23 10 26 14 9 105 -44 188 -110 l69 -54
-23 57 c-13 31 -24 67 -24 79 0 51 -86 112 -221 158 l-71 25 6 -25 c21 -87 23
-84 -25 -39 -86 80 -96 84 -206 83 -54 0 -132 -7 -174 -15z m531 -664 c15 -11
39 -24 54 -30 26 -9 27 -12 24 -77 l-3 -67 -50 -38 c-68 -52 -162 -98 -199
-98 -30 0 -35 6 -81 92 -28 50 -50 95 -50 99 0 25 207 139 253 139 13 0 36 -9
52 -20z m280 -99 c8 -45 8 -76 0 -114 -17 -81 -20 -81 -73 -16 -45 57 -47 62
-47 122 0 63 0 63 43 94 l42 30 12 -26 c6 -15 16 -55 23 -90z m-112 -216 c41
-52 45 -77 22 -139 -13 -34 -39 -74 -63 -99 l-41 -42 -7 63 c-3 34 -9 65 -12
68 -3 4 -19 -3 -36 -15 -16 -12 -49 -28 -72 -36 -48 -17 -44 -20 -84 56 l-24
47 45 17 c25 9 68 33 97 53 47 32 90 48 139 51 9 0 25 -10 36 -24z"/>
</g>
</svg>
