<?xml version="1.0" standalone="no"?>
<!DOCTYPE svg PUBLIC "-//W3C//DTD SVG 20010904//EN"
 "http://www.w3.org/TR/2001/REC-SVG-20010904/DTD/svg10.dtd">
<svg version="1.0" xmlns="http://www.w3.org/2000/svg"
 width="256.000000pt" height="256.000000pt" viewBox="0 0 256.000000 256.000000"
 preserveAspectRatio="xMidYMid meet">
<metadata>
Created by potrace 1.15, written by Peter Selinger 2001-2017
</metadata>
<g transform="translate(0.000000,256.000000) scale(0.100000,-0.100000)"
fill="#000000" stroke="none">
<path d="M1210 2453 c-13 -38 -26 -71 -29 -76 -4 -4 -40 15 -79 43 -39 27 -75
50 -81 50 -5 0 -6 -15 -1 -37 4 -21 10 -52 14 -70 l5 -32 -54 34 c-30 19 -56
35 -59 35 -2 0 13 -34 35 -76 21 -41 39 -82 39 -90 0 -9 3 -14 8 -12 53 27
118 53 167 66 66 18 218 22 301 9 l52 -9 7 44 c4 24 14 63 22 86 8 24 12 46
10 49 -3 2 -25 -17 -51 -44 l-46 -48 -1 60 c-1 33 -1 66 0 73 4 29 -28 6 -83
-59 l-59 -70 -41 70 c-23 39 -44 71 -48 71 -3 0 -16 -30 -28 -67z"/>
<path d="M1205 2265 c-73 -16 -158 -49 -162 -62 -2 -6 10 -13 26 -16 16 -4 35
-16 41 -27 11 -20 10 -21 -9 -11 -61 33 -121 -9 -121 -84 0 -26 5 -55 10 -66
18 -32 1 -21 -20 14 -22 35 -26 97 -10 128 20 36 -7 19 -75 -50 -59 -60 -135
-162 -135 -182 0 -3 14 -9 31 -13 l31 -6 -20 -27 c-38 -54 -74 -136 -94 -215
-11 -44 -18 -81 -15 -84 2 -2 23 3 47 11 23 8 47 15 52 15 5 0 7 -28 3 -67 -4
-38 -2 -104 4 -148 10 -80 39 -185 50 -185 11 0 138 134 164 173 l25 39 12
-59 c8 -38 10 -88 5 -148 -14 -171 -18 -157 45 -182 109 -44 291 -26 407 41
l43 25 6 -40 c4 -23 12 -39 20 -39 23 0 148 131 177 187 15 28 36 84 46 123
l18 72 22 -28 c12 -15 24 -25 27 -22 17 18 35 126 35 213 1 117 -27 222 -86
319 -19 32 -35 62 -35 67 0 5 -7 9 -15 9 -9 0 -12 -6 -8 -17 6 -16 5 -16 -15
1 -15 13 -20 26 -16 45 8 37 -19 60 -48 42 -16 -10 -24 -9 -43 3 -14 9 -29 16
-35 16 -15 0 36 -67 80 -107 l35 -31 -40 5 c-23 3 -56 1 -75 -4 -34 -10 -37
-8 -78 38 -44 49 -50 67 -30 87 19 19 2 25 -28 9 -27 -14 -32 -13 -79 10 l-50
26 -52 -28 c-29 -15 -53 -31 -53 -34 0 -16 75 -41 123 -41 49 0 56 -3 95 -42
l41 -43 -109 5 c-122 6 -151 18 -182 81 -10 19 -28 37 -40 40 -21 5 -19 8 22
34 25 16 47 30 49 32 2 1 -1 9 -8 17 -9 11 -5 18 24 34 33 20 126 52 150 52 7
0 40 -18 74 -40 34 -22 63 -40 65 -40 2 0 9 14 15 31 l11 31 40 -23 c23 -13
62 -43 88 -66 25 -23 47 -41 49 -39 2 2 -6 23 -17 47 -11 24 -20 53 -20 65 0
23 -29 52 -75 77 -48 27 -127 58 -133 53 -2 -3 1 -19 7 -36 l10 -31 -46 40
c-45 40 -48 41 -117 40 -39 0 -98 -7 -131 -14z m372 -465 c14 -11 32 -20 39
-20 10 0 14 -13 14 -43 0 -40 -4 -46 -42 -74 -115 -82 -138 -82 -179 -1 l-31
62 33 28 c26 22 111 63 137 67 2 1 15 -8 29 -19z m120 -234 c18 -39 11 -68
-32 -126 l-23 -31 -6 46 c-4 25 -9 45 -11 45 -1 0 -23 -11 -46 -25 -24 -14
-47 -25 -51 -25 -4 0 -15 14 -24 32 -16 30 -16 33 1 43 10 5 39 24 64 41 26
19 60 32 79 33 27 1 35 -4 49 -33z"/>
<path d="M550 685 l0 -175 40 0 40 0 0 55 c0 52 1 55 25 55 69 0 135 57 135
117 0 85 -50 123 -165 123 l-75 0 0 -175z"/>
<path d="M800 630 l0 -120 35 0 35 0 0 68 c0 75 12 99 50 104 19 2 26 10 28
31 4 33 -18 45 -53 29 -15 -7 -26 -8 -30 -2 -4 6 -19 10 -36 10 l-29 0 0 -120z"/>
<path d="M998 734 c-53 -28 -73 -105 -43 -164 29 -56 113 -77 175 -45 34 17
38 36 14 56 -15 12 -14 14 7 20 20 4 24 11 22 39 -1 18 -7 44 -14 57 -27 50
-106 68 -161 37z"/>
<path d="M1190 630 l0 -120 35 0 34 0 3 83 c3 81 3 82 31 85 l27 3 0 -85 0
-86 35 0 35 0 0 69 c0 85 6 101 36 101 23 0 24 -2 24 -85 l0 -85 41 0 41 0 -4
94 c-3 84 -6 97 -27 120 -28 30 -90 36 -111 11 -12 -14 -15 -14 -30 0 -19 17
-71 20 -87 4 -8 -8 -13 -8 -17 0 -4 6 -20 11 -37 11 l-29 0 0 -120z"/>
<path d="M1550 630 l0 -120 35 0 35 0 0 120 0 120 -35 0 -35 0 0 -120z"/>
<path d="M1681 725 c-35 -30 -55 -83 -46 -125 3 -16 23 -43 42 -61 33 -28 41
-31 89 -27 33 3 62 12 74 23 18 16 19 20 5 35 -20 22 -19 30 5 30 41 0 17 100
-32 134 -35 25 -101 20 -137 -9z"/>
<path d="M1881 630 l0 -120 40 0 39 0 0 73 c0 78 9 97 47 97 20 0 23 5 23 35
0 30 -3 35 -24 35 -14 0 -32 -7 -40 -16 -15 -14 -16 -14 -16 0 0 12 -10 16
-34 16 l-35 0 0 -120z"/>
<path d="M550 320 l0 -170 110 0 110 0 0 35 0 35 -70 0 -70 0 0 135 0 135 -40
0 -40 0 0 -170z"/>
<path d="M840 372 c-38 -20 -70 -72 -70 -113 0 -39 40 -91 82 -107 44 -17 92
-10 128 18 l25 19 -23 23 c-19 19 -25 21 -42 10 -27 -16 -65 -15 -80 3 -11 13
-2 15 69 15 l81 0 0 35 c0 26 -9 44 -32 70 -42 44 -89 53 -138 27z"/>
<path d="M1863 376 c-39 -18 -63 -53 -70 -103 -13 -102 121 -169 206 -104 l24
18 -23 23 c-19 19 -25 20 -44 10 -27 -14 -78 -10 -84 8 -3 9 17 12 78 12 l83
0 -6 42 c-10 78 -93 125 -164 94z"/>
<path d="M1061 350 c-58 -59 -48 -147 21 -190 39 -24 63 -25 101 -6 15 8 27
11 27 5 0 -5 14 -9 30 -9 l30 0 0 115 0 115 -29 0 c-16 0 -31 -6 -34 -12 -4
-10 -7 -10 -18 0 -7 6 -32 12 -55 12 -34 0 -49 -6 -73 -30z"/>
<path d="M1331 354 c-55 -46 -60 -121 -11 -174 33 -35 74 -47 112 -32 21 8 28
7 28 -2 0 -35 -69 -49 -106 -21 -26 20 -29 19 -42 -10 -17 -37 -16 -41 22 -59
64 -30 145 -14 180 36 13 18 16 51 16 155 l0 133 -30 0 c-16 0 -30 -5 -30 -10
0 -7 -6 -7 -19 0 -35 18 -87 12 -120 -16z"/>
<path d="M1550 308 c0 -96 20 -138 76 -157 48 -17 82 -10 121 23 26 23 28 30
31 115 l4 91 -36 0 -36 0 0 -66 c0 -78 -12 -104 -46 -104 -32 0 -46 36 -43
110 l3 55 -37 3 -37 3 0 -73z"/>
</g>
</svg>
